#!OML:ASF F:\VICON\USERDATA\INSTALL\rory3\rory3.ASF
:FULLY-SPECIFIED
:DEGREES
10
root -0.02343847815194089 17.110614072118064 -27.931384640746412 6.105388356946396 -2.800217290758803 -4.699100707447187
lfemur -27.77549412320892 4.793679319849197 -10.815613813567444
ltibia 106.53698151806987
lfoot 25.58708745263152 -16.69939000841005
ltoes 8.059528846559989
rfemur -23.93689604685683 9.375715422172165 33.898890942552335
rtibia 50.38290331269905
rfoot -23.325881168232563 -15.901981019570263
rtoes 0.5364152944385356
lowerback 18.003983106372445 -1.1032762498604107 2.3427482261959347
upperback -0.24906816824283495 -0.5690135976568333 3.780181610753777
thorax -10.40578590540837 -0.2759027221509628 2.962168090550618
lowerneck -19.688693991847117 -2.629238284859351 -3.3722563837235042
upperneck 11.37808499200373 -3.0454997812111473 2.5583352738508514
head 6.766176384261047 -1.3849584528733994 1.0292387722030416
lclavicle -1.3367475447729634e-15 -2.758979338703111e-15
lhumerus -46.81550137539928 -8.002197940608063 95.39418710562876
lradius 96.83891794124364
lwrist 25.643816829422903
lhand -22.50760887274751 5.118763495478407
lfingers 7.12502
lthumb 3.9186011266509118 35.06249353037384
rclavicle -1.3367475447729634e-15 -2.758979338703111e-15
rhumerus -39.35430839010151 16.139593541663622 -97.36090149180474
rradius 101.86000849056063
rwrist -24.8410913816363
rhand -19.039697472755776 38.864801582620004
rfingers 7.12502
rthumb 7.266852525378133 9.009631661132055
11
root -0.027220844310119174 17.156013308549362 -27.45838484185234 6.216277727690425 -2.3085983991233143 -4.86168002182054
lfemur -30.687992597985406 5.21721852877643 -10.323914564212995
ltibia 107.02998134552786
lfoot 23.574188660167355 -16.377790440263084
ltoes 2.3999844583015335
rfemur -21.5895971922233 8.889926506458302 34.29079021807247
rtibia 49.373903674633695
rfoot -24.214880597475812 -15.992980845641505
rtoes 1.0548428820393325
lowerback 17.989383178404264 -1.238765245485426 2.248758515221862
upperback -0.676806960295172 -0.7117419241072758 4.1298389145486905
thorax -10.868181277263407 -0.3225072011156276 3.458035938079909
lowerneck -17.977603557045274 -2.6145583765674996 -3.9137458084164862
upperneck 10.764888253633467 -2.9391102484552367 2.5609652556075306
head 6.293113101923231 -1.371188583040417 1.1448060415468617
lclavicle -1.33674756635903e-15 -2.7589793000284967e-15
lhumerus -48.925399796414915 -6.778180715010424 95.78338618230889
lradius 97.70781696673495
lwrist 25.144418414610676
lhand -21.760611694074136 5.838710932111633
lfingers 7.12502
lthumb 4.639898305748553 35.7678910126372
rclavicle -1.33674756635903e-15 -2.7589793000284967e-15
rhumerus -39.17140854404928 17.175192024307467 -97.91349999492016
rradius 103.8450064478171
rwrist -26.033986981536795
rhand -20.081192774982156 40.09979812329124
rfingers 7.12502
rthumb 6.261447223804295 10.212298306562603
12
root -0.010844723791255118 17.20441249452458 -26.93148506587489 6.502376104188458 -2.993136855817834 -5.092979046390326
lfemur -32.668091561042914 6.781895606323495 -10.126814865112403
ltibia 106.80698142357443
lfoot 20.412890556626653 -15.827091179757707
ltoes -2.853920332170386
rfemur -18.97019847036114 9.204215804961185 34.55128973650317
rtibia 47.94580418690213
rfoot -24.270580561715292 -15.974280881382885
rtoes -0.9559395184217951
lowerback 17.171187215147228 -0.8178683655786375 2.431567953068127
upperback -0.8022864325157508 -0.1483775826811784 4.158538693244899
thorax -10.564184319988476 -0.06789554765893491 3.2128770022695456
lowerneck -17.321507224701467 -2.7456975573163547 -4.005114023992108
upperneck 10.509889609986333 -3.121599446994816 2.598084998119999
head 6.112075672717324 -1.4651476948419468 1.1586257150117023
lclavicle -1.3367475941126505e-15 -2.758979260064827e-15
lhumerus -50.53969858832237 -6.525321288150879 95.9279858392666
lradius 98.73711581233071
lwrist 25.515317237305617
lhand -20.441316676907107 6.815127455588842
lfingers 7.12502
lthumb 5.9137133240185475 36.71258764078323
rclavicle -1.3367475941126505e-15 -2.758979260064827e-15
rhumerus -38.682008955979526 17.253391909729192 -98.20439920692935
rradius 105.90200433097905
rwrist -27.129882939228953
rhand -19.71259443758355 41.9125930455008
rfingers 7.12502
rthumb 6.617295560865838 12.035993219773786
13
root 0.0017660099686039876 17.248411754502055 -26.45068527029707 6.539085895874038 -2.653727621022658 -5.163998746887282
lfemur -35.07899029849822 7.220204787663864 -10.175514790765373
ltibia 106.38598157091761
lfoot 17.17799249723852 -15.517591595362552
ltoes -8.726384509307522
rfemur -16.38139973356769 8.733786854963716 34.740789386186925
rtibia 46.355804757245146
rfoot -23.525981039764183 -15.766981277596425
rtoes -2.591064217711441
lowerback 17.067087728744088 -0.43369321345501277 3.0962559090991664
upperback -0.5734872182680724 0.4411536352607559 3.783781582994419
thorax -10.261687347700091 0.16271737410216902 2.2593011415661715
lowerneck -18.68019962945003 -3.277434235457244 -3.3653565184781074
upperneck 10.703288581285769 -3.946115825864088 2.587185073729212
head 6.410201439228354 -1.8258142854492012 0.9485046798110488
lclavicle -1.3367475591636744e-15 -2.7589793258115133e-15
lhumerus -51.161898122687006 -7.830358330106028 95.85138602098885
lradius 99.73551469258221
lwrist 26.179915127742532
lhand -20.475716546982575 6.387558977942804
lfingers 7.12502
lthumb 5.880563453663512 36.285989163417824
rclavicle -1.3367475591636744e-15 -2.7589793258115133e-15
rhumerus -36.93201042896264 15.96439379836581 -98.07809954905117
rradius 108.11700205154482
rwrist -28.577177600756315
rhand -17.458604604440715 40.41229724795502
rfingers 7.12502
rthumb 8.792825394253171 10.615497181929577
